inDegrees=yes
name=ik_appendData_table_roll
DataType=double
version=3
OpenSimVersion=4.5
endheader
time	pelvis_tilt	pelvis_list	pelvis_rotation	pelvis_tx	pelvis_ty	pelvis_tz	hip_flexion_r	hip_adduction_r	hip_rotation_r	knee_angle_r	knee_angle_r_beta	ankle_angle_r	subtalar_angle_r	mtp_angle_r	hip_flexion_l	hip_adduction_l	hip_rotation_l	knee_angle_l	knee_angle_l_beta	ankle_angle_l	subtalar_angle_l	mtp_angle_l	lumbar_extension	lumbar_bending	lumbar_rotation	arm_flex_r	arm_add_r	arm_rot_r	elbow_flex_r	pro_sup_r	wrist_flex_r	wrist_dev_r	arm_flex_l	arm_add_l	arm_rot_l	elbow_flex_l	pro_sup_l	wrist_flex_l	wrist_dev_l
25	-1.740950371445141	89.70059918977682	-2.730365868016443	0	0.9399999999999999	0	44.63141533819398	-10.03990141747712	0	59.95019542078125	1.04632829730666	-5.00534289763672	0	0	44.63141533819398	-10.03990141747712	0	59.95019542078125	1.04632829730666	-5.00534289763672	0	0	-0.01646021170058075	0.2936514204180501	3.323496373739714	0	-12.49111231967231	0	76.05572493752905	44.94022683892732	0	0	-0.5267682363549085	47.19466838279958	-1.151712895565681	0.01231462537595872	44.94022683892732	0	0
26	-1.140548607367572	89.69230326355951	-3.603654369214561	0	0.9399999999999999	0	44.65226210169678	-10.03459839234065	0	59.95245331368913	1.04636770497206	-5.004538548660121	0	0	44.65226210169678	-10.03459839234065	0	59.95245331368913	1.04636770497206	-5.004538548660121	0	0	-0.01385627224326284	0.300869415584926	3.604232246427014	0	-12.5712222468683	0	75.99601862957606	44.94720448590378	0	0	-0.5651305924722078	46.7963496610408	-1.138244916341349	0.01246062938136772	44.94720448590378	0	0
27	-1.137967519079536	89.68794064707869	-3.603959161377569	0	0.9399999999999999	0	44.65233453691447	-10.03457313826136	0	59.95246109150455	1.046367840720548	-5.004534224846871	0	0	44.65233453691447	-10.03457313826136	0	59.95246109150455	1.046367840720548	-5.004534224846871	0	0	-0.006049066980406121	0.3000392205588354	3.603038187230528	0	-12.57148093141518	0	75.99581116056183	44.94723495402207	0	0	-0.5808436484810563	46.78746733446633	-1.133214549205732	0.01246163952347946	44.94723495402207	0	0
28	-1.581870583449919	89.70221497754139	-4.281018652185331	0	0.9399999999999999	0	44.65730633835623	-10.03280269265481	0	59.95299749237978	1.046377202681931	-5.00423482248137	0	0	44.65730633835623	-10.03280269265481	0	59.95299749237978	1.046377202681931	-5.00423482248137	0	0	-0.01752471191303572	0.2829329082135377	4.702013732968977	0	-12.58872379203328	0	75.98157077392628	44.94937957886668	0	0	-0.9092979935626638	45.97804249399426	-0.3436647762413372	0.01268155797348306	44.94937957886668	0	0
29	-0.9750806479624522	89.70323535779642	-4.887911715244925	0	0.9399999999999999	0	44.67210582305523	-10.02780008160797	0	59.95461446232179	1.046405424131325	-5.003411316197538	0	0	44.67210582305523	-10.02780008160797	0	59.95461446232179	1.046405424131325	-5.003411316197538	0	0	-0.005748369313586907	0.2850017636070665	4.731327594298381	0	-12.64058196431205	0	75.9391822458108	44.95554481957647	0	0	-1.333991551568631	44.35175441790339	0.5325071870703297	0.0132208274916732	44.95554481957647	0	0
30	-0.5688494562072557	89.70473183723253	-5.30643865130877	0	0.9399999999999999	0	44.69069175819163	-10.02301450012116	0	59.95670157248644	1.04644185107555	-5.002691302734158	0	0	44.69069175819163	-10.02301450012116	0	59.95670157248644	1.04644185107555	-5.002691302734158	0	0	0.001411753112337106	0.2725834446018907	4.744530271781006	0	-12.71108643850297	0	75.88595125010869	44.96185913464485	0	0	-1.337868267878995	41.10216618958786	0.4796442674257232	0.01446197088783254	44.96185913464485	0	0
31	-0.008047086458182652	89.70454322493224	-5.86212122511076	0	0.9399999999999999	0	44.71432252586352	-10.01826668319146	0	59.95945307441344	1.046489873843551	-5.002032047776465	0	0	44.71432252586352	-10.01826668319146	0	59.95945307441344	1.046489873843551	-5.002032047776465	0	0	-0.007979249881034559	0.2833788195738335	4.759011810875263	0	-12.80690869070833	0	75.81827388075384	44.96852665987923	0	0	-1.337954525772193	35.84424642477988	0.4449774544252109	0.01702888585886411	44.96852665987923	0	0
32	0.653155714626996	89.70339964377472	-6.529279743931024	0	0.9399999999999999	0	44.73591491296628	-10.0144170736404	0	59.96196874213761	1.046533780528224	-5.001519348114071	0	0	44.73591491296628	-10.0144170736404	0	59.96196874213761	1.046533780528224	-5.001519348114071	0	0	-0.009067173333948511	0.2698891739009371	4.756984303174907	0	-12.8966278950268	0	75.75643514269872	44.97410818638475	0	0	-1.375834181114467	32.00759058529326	0.3994328392400971	0.01965989671756141	44.97410818638475	0	0
33	0.9280085409460869	89.70105446962192	-6.793776354688696	0	0.9399999999999999	0	44.75684198709357	-10.01186699900358	0	59.96445854521296	1.046577235789615	-5.001216897482867	0	0	44.75684198709357	-10.01186699900358	0	59.96445854521296	1.046577235789615	-5.001216897482867	0	0	1.119976340263709	0.3215083222007725	4.740022012560055	0	-12.99304561111301	0	75.69650398840288	44.9781649044296	0	0	-1.708365721849784	27.85128391061393	-0.4562582615999453	0.02195264009448563	44.9781649044296	0	0
34	0.360720844163785	89.71126090871665	-7.332090977293255	0	0.9399999999999999	0	44.75907717987349	-10.01164128768956	0	59.96478920469004	1.046583006886193	-5.001190496438096	0	0	44.75907717987349	-10.01164128768956	0	59.96478920469004	1.046583006886193	-5.001190496438096	0	0	1.106738316464288	0.3401950860143712	5.844075413448674	0	-13.00469926512521	0	75.69010296914628	44.97853237099798	0	0	-1.052185326078063	22.95438709199665	-1.193146806783887	0.02451023012673279	44.97853237099798	0	0
35	0.3263114294008892	89.73554301227608	-7.30335818628551	0	0.9399999999999999	0	44.76164112207261	-10.01138099256353	0	59.96516966194235	1.046589647117909	-5.001159999208795	0	0	44.76164112207261	-10.01138099256353	0	59.96516966194235	1.046589647117909	-5.001159999208795	0	0	1.13200162962149	0.3110478514715102	5.850823901850098	0	-13.01806806909018	0	75.68276049445285	44.97895550878101	0	0	-0.7401773770889419	17.30389697338593	-0.628434015295217	0.02903075195230601	44.97895550878101	0	0
36	0.2994689470290386	89.70404357205254	-7.274194957561862	0	0.9399999999999999	0	44.76400102478826	-10.01113319932576	0	59.96551671679152	1.046595704367712	-5.001130733740819	0	0	44.76400102478826	-10.01113319932576	0	59.96551671679152	1.046595704367712	-5.001130733740819	0	0	1.126832608970361	0.3438711752958007	5.844753167329046	0	-13.03024493680784	0	75.67600231904289	44.97935538677057	0	0	-0.8863409698577541	12.02866490914461	-0.5815009592199867	0.04160475128025144	44.97935538677057	0	0
37	0.280816866775018	89.7107855954571	-7.258861925831426	0	0.9399999999999999	0	44.76538743061195	-10.01098283429248	0	59.96571913884299	1.046599237298989	-5.001112766694645	0	0	44.76538743061195	-10.01098283429248	0	59.96571913884299	1.046599237298989	-5.001112766694645	0	0	1.116710084743744	0.3358078170231542	5.843604472826065	0	-13.03734535021898	0	75.67203198934824	44.97959594408155	0	0	-0.9225660521585398	8.543442476511688	-1.151713645056403	0.05793618174864369	44.97959594408155	0	0
38	0.2692010987082708	89.71374999912652	-7.247870289921916	0	0.9399999999999999	0	44.76702581473908	-10.01080466472382	0	59.96595688995507	1.046603386838695	-5.0010914759028	0	0	44.76702581473908	-10.01080466472382	0	59.96595688995507	1.046603386838695	-5.0010914759028	0	0	1.119777212313301	0.3318094470056272	5.84348081875309	0	-13.04571975382323	0	75.66734005277402	44.97988090825078	0	0	-1.067371783191037	4.494249871651018	-1.132312606561416	0.1062341296364128	44.97988090825078	0	0
39	0.2586067550322892	89.70818865890202	-7.230708888097568	0	0.9399999999999999	0	44.76861934956557	-10.01063505312116	0	59.96619041047471	1.046607462540634	-5.001071316202307	0	0	44.76861934956557	-10.01063505312116	0	59.96619041047471	1.046607462540634	-5.001071316202307	0	0	1.121494707045096	0.3412906621651878	5.845287443879558	0	-13.05393417544156	0	75.6627765624083	44.98015341816529	0	0	-1.316779681891702	0.4620158894144177	-1.697622844628819	0.3704805655422457	44.98015341816529	0	0
40	0.2549812850559343	89.71113135169193	-7.23598184171845	0	0.9399999999999999	0	44.76869055411193	-10.01062363146982	0	59.96619861989679	1.046607605822079	-5.001069815434588	0	0	44.76869055411193	-10.01062363146982	0	59.96619861989679	1.046607605822079	-5.001069815434588	0	0	1.12219274738544	0.3270877045682442	5.851470311416418	0	-13.05424110425677	0	75.6625726424471	44.98017028165022	0	0	-2.364208176562654	-0.1878010965598562	-1.154630685762811	1.300189128630612	44.98017028165022	0	0
